<?xml version="1.0" encoding="UTF-8"?>
<svg xmlns="http://www.w3.org/2000/svg" xmlns:xlink="http://www.w3.org/1999/xlink" width="150pt" height="74.999997pt" viewBox="0 0 150 74.999997" version="1.2">
<defs>
<clipPath id="clip1">
  <path d="M 54 26 L 102.921875 26 L 102.921875 75 L 54 75 Z M 54 26 "/>
</clipPath>
<clipPath id="clip2">
  <path d="M 47.078125 25.859375 L 98 25.859375 L 98 75 L 47.078125 75 Z M 47.078125 25.859375 "/>
</clipPath>
<clipPath id="clip3">
  <path d="M 49.332031 59.785156 L 64.519531 59.785156 L 64.519531 73.855469 L 49.332031 73.855469 Z M 49.332031 59.785156 "/>
</clipPath>
<clipPath id="clip4">
  <path d="M 58 69 L 64.519531 69 L 64.519531 73 L 58 73 Z M 58 69 "/>
</clipPath>
<clipPath id="clip5">
  <path d="M 49.332031 69 L 56 69 L 56 73 L 49.332031 73 Z M 49.332031 69 "/>
</clipPath>
<clipPath id="clip6">
  <path d="M 55 1 L 85 1 L 85 28 L 55 28 Z M 55 1 "/>
</clipPath>
<clipPath id="clip7">
  <path d="M 57.472656 0 L 85.84375 2.707031 L 83.347656 28.839844 L 54.976562 26.132812 Z M 57.472656 0 "/>
</clipPath>
<clipPath id="clip8">
  <path d="M 57.472656 0 L 85.84375 2.707031 L 83.347656 28.839844 L 54.976562 26.132812 Z M 57.472656 0 "/>
</clipPath>
<clipPath id="clip9">
  <path d="M 57.472656 0 L 85.855469 2.710938 L 83.359375 28.851562 L 54.976562 26.144531 Z M 57.472656 0 "/>
</clipPath>
<clipPath id="clip10">
  <path d="M 57.472656 0 L 85.84375 2.707031 L 83.347656 28.839844 L 54.976562 26.132812 Z M 57.472656 0 "/>
</clipPath>
<clipPath id="clip11">
  <path d="M 57 10 L 68 10 L 68 24 L 57 24 Z M 57 10 "/>
</clipPath>
<clipPath id="clip12">
  <path d="M 57.472656 0 L 85.84375 2.707031 L 83.347656 28.839844 L 54.976562 26.132812 Z M 57.472656 0 "/>
</clipPath>
<clipPath id="clip13">
  <path d="M 57.472656 0 L 85.84375 2.707031 L 83.347656 28.839844 L 54.976562 26.132812 Z M 57.472656 0 "/>
</clipPath>
<clipPath id="clip14">
  <path d="M 58 12 L 64 12 L 64 20 L 58 20 Z M 58 12 "/>
</clipPath>
<clipPath id="clip15">
  <path d="M 57.472656 0 L 85.84375 2.707031 L 83.347656 28.839844 L 54.976562 26.132812 Z M 57.472656 0 "/>
</clipPath>
<clipPath id="clip16">
  <path d="M 57.472656 0 L 85.84375 2.707031 L 83.347656 28.839844 L 54.976562 26.132812 Z M 57.472656 0 "/>
</clipPath>
<clipPath id="clip17">
  <path d="M 61 4 L 69 4 L 69 23 L 61 23 Z M 61 4 "/>
</clipPath>
<clipPath id="clip18">
  <path d="M 57.472656 0 L 85.84375 2.707031 L 83.347656 28.839844 L 54.976562 26.132812 Z M 57.472656 0 "/>
</clipPath>
<clipPath id="clip19">
  <path d="M 57.472656 0 L 85.84375 2.707031 L 83.347656 28.839844 L 54.976562 26.132812 Z M 57.472656 0 "/>
</clipPath>
<clipPath id="clip20">
  <path d="M 63 5 L 67 5 L 67 18 L 63 18 Z M 63 5 "/>
</clipPath>
<clipPath id="clip21">
  <path d="M 57.472656 0 L 85.84375 2.707031 L 83.347656 28.839844 L 54.976562 26.132812 Z M 57.472656 0 "/>
</clipPath>
<clipPath id="clip22">
  <path d="M 57.472656 0 L 85.84375 2.707031 L 83.347656 28.839844 L 54.976562 26.132812 Z M 57.472656 0 "/>
</clipPath>
<clipPath id="clip23">
  <path d="M 63 6 L 66 6 L 66 13 L 63 13 Z M 63 6 "/>
</clipPath>
<clipPath id="clip24">
  <path d="M 57.472656 0 L 85.84375 2.707031 L 83.347656 28.839844 L 54.976562 26.132812 Z M 57.472656 0 "/>
</clipPath>
<clipPath id="clip25">
  <path d="M 57.472656 0 L 85.84375 2.707031 L 83.347656 28.839844 L 54.976562 26.132812 Z M 57.472656 0 "/>
</clipPath>
<clipPath id="clip26">
  <path d="M 70 5 L 81 5 L 81 23 L 70 23 Z M 70 5 "/>
</clipPath>
<clipPath id="clip27">
  <path d="M 57.472656 0 L 85.84375 2.707031 L 83.347656 28.839844 L 54.976562 26.132812 Z M 57.472656 0 "/>
</clipPath>
<clipPath id="clip28">
  <path d="M 57.472656 0 L 85.84375 2.707031 L 83.347656 28.839844 L 54.976562 26.132812 Z M 57.472656 0 "/>
</clipPath>
<clipPath id="clip29">
  <path d="M 73 6 L 79 6 L 79 18 L 73 18 Z M 73 6 "/>
</clipPath>
<clipPath id="clip30">
  <path d="M 57.472656 0 L 85.84375 2.707031 L 83.347656 28.839844 L 54.976562 26.132812 Z M 57.472656 0 "/>
</clipPath>
<clipPath id="clip31">
  <path d="M 57.472656 0 L 85.84375 2.707031 L 83.347656 28.839844 L 54.976562 26.132812 Z M 57.472656 0 "/>
</clipPath>
<clipPath id="clip32">
  <path d="M 75 7 L 79 7 L 79 14 L 75 14 Z M 75 7 "/>
</clipPath>
<clipPath id="clip33">
  <path d="M 57.472656 0 L 85.84375 2.707031 L 83.347656 28.839844 L 54.976562 26.132812 Z M 57.472656 0 "/>
</clipPath>
<clipPath id="clip34">
  <path d="M 57.472656 0 L 85.84375 2.707031 L 83.347656 28.839844 L 54.976562 26.132812 Z M 57.472656 0 "/>
</clipPath>
<clipPath id="clip35">
  <path d="M 71 12 L 84 12 L 84 24 L 71 24 Z M 71 12 "/>
</clipPath>
<clipPath id="clip36">
  <path d="M 57.472656 0 L 85.84375 2.707031 L 83.347656 28.839844 L 54.976562 26.132812 Z M 57.472656 0 "/>
</clipPath>
<clipPath id="clip37">
  <path d="M 57.472656 0 L 85.84375 2.707031 L 83.347656 28.839844 L 54.976562 26.132812 Z M 57.472656 0 "/>
</clipPath>
<clipPath id="clip38">
  <path d="M 76 13 L 82 13 L 82 21 L 76 21 Z M 76 13 "/>
</clipPath>
<clipPath id="clip39">
  <path d="M 57.472656 0 L 85.84375 2.707031 L 83.347656 28.839844 L 54.976562 26.132812 Z M 57.472656 0 "/>
</clipPath>
<clipPath id="clip40">
  <path d="M 57.472656 0 L 85.84375 2.707031 L 83.347656 28.839844 L 54.976562 26.132812 Z M 57.472656 0 "/>
</clipPath>
<clipPath id="clip41">
  <path d="M 72 20 L 84 20 L 84 25 L 72 25 Z M 72 20 "/>
</clipPath>
<clipPath id="clip42">
  <path d="M 57.472656 0 L 85.84375 2.707031 L 83.347656 28.839844 L 54.976562 26.132812 Z M 57.472656 0 "/>
</clipPath>
<clipPath id="clip43">
  <path d="M 57.472656 0 L 85.84375 2.707031 L 83.347656 28.839844 L 54.976562 26.132812 Z M 57.472656 0 "/>
</clipPath>
<clipPath id="clip44">
  <path d="M 78 21 L 82 21 L 82 24 L 78 24 Z M 78 21 "/>
</clipPath>
<clipPath id="clip45">
  <path d="M 57.472656 0 L 85.84375 2.707031 L 83.347656 28.839844 L 54.976562 26.132812 Z M 57.472656 0 "/>
</clipPath>
<clipPath id="clip46">
  <path d="M 57.472656 0 L 85.84375 2.707031 L 83.347656 28.839844 L 54.976562 26.132812 Z M 57.472656 0 "/>
</clipPath>
<clipPath id="clip47">
  <path d="M 56 17 L 67 17 L 67 25 L 56 25 Z M 56 17 "/>
</clipPath>
<clipPath id="clip48">
  <path d="M 57.472656 0 L 85.84375 2.707031 L 83.347656 28.839844 L 54.976562 26.132812 Z M 57.472656 0 "/>
</clipPath>
<clipPath id="clip49">
  <path d="M 57.472656 0 L 85.84375 2.707031 L 83.347656 28.839844 L 54.976562 26.132812 Z M 57.472656 0 "/>
</clipPath>
<clipPath id="clip50">
  <path d="M 57 19 L 61 19 L 61 22 L 57 22 Z M 57 19 "/>
</clipPath>
<clipPath id="clip51">
  <path d="M 57.472656 0 L 85.84375 2.707031 L 83.347656 28.839844 L 54.976562 26.132812 Z M 57.472656 0 "/>
</clipPath>
<clipPath id="clip52">
  <path d="M 57.472656 0 L 85.84375 2.707031 L 83.347656 28.839844 L 54.976562 26.132812 Z M 57.472656 0 "/>
</clipPath>
<clipPath id="clip53">
  <path d="M 68 2 L 75 2 L 75 23 L 68 23 Z M 68 2 "/>
</clipPath>
<clipPath id="clip54">
  <path d="M 57.472656 0 L 85.84375 2.707031 L 83.347656 28.839844 L 54.976562 26.132812 Z M 57.472656 0 "/>
</clipPath>
<clipPath id="clip55">
  <path d="M 57.472656 0 L 85.84375 2.707031 L 83.347656 28.839844 L 54.976562 26.132812 Z M 57.472656 0 "/>
</clipPath>
<clipPath id="clip56">
  <path d="M 69 3 L 74 3 L 74 19 L 69 19 Z M 69 3 "/>
</clipPath>
<clipPath id="clip57">
  <path d="M 57.472656 0 L 85.84375 2.707031 L 83.347656 28.839844 L 54.976562 26.132812 Z M 57.472656 0 "/>
</clipPath>
<clipPath id="clip58">
  <path d="M 57.472656 0 L 85.84375 2.707031 L 83.347656 28.839844 L 54.976562 26.132812 Z M 57.472656 0 "/>
</clipPath>
<clipPath id="clip59">
  <path d="M 69 4 L 73 4 L 73 16 L 69 16 Z M 69 4 "/>
</clipPath>
<clipPath id="clip60">
  <path d="M 57.472656 0 L 85.84375 2.707031 L 83.347656 28.839844 L 54.976562 26.132812 Z M 57.472656 0 "/>
</clipPath>
<clipPath id="clip61">
  <path d="M 57.472656 0 L 85.84375 2.707031 L 83.347656 28.839844 L 54.976562 26.132812 Z M 57.472656 0 "/>
</clipPath>
</defs>
<g id="surface1">
<g clip-path="url(#clip1)" clip-rule="nonzero">
<path style=" stroke:none;fill-rule:evenodd;fill:rgb(47.059631%,56.469727%,61.178589%);fill-opacity:1;" d="M 100.121094 75.007812 L 58.113281 75.007812 C 57.007812 75.007812 55.953125 74.539062 55.214844 73.714844 C 54.476562 72.890625 54.121094 71.792969 54.238281 70.691406 C 55.289062 60.867188 57.839844 37.042969 58.714844 28.855469 C 58.792969 28.113281 59.167969 27.429688 59.753906 26.960938 C 60.335938 26.492188 61.085938 26.273438 61.828125 26.359375 C 65.386719 26.761719 71.527344 27.457031 75.519531 27.910156 C 77.945312 28.1875 80.082031 29.625 81.242188 31.769531 C 83.140625 35.261719 85.992188 40.515625 87.332031 42.984375 C 87.828125 43.894531 88.4375 44.738281 89.148438 45.492188 C 90.617188 47.046875 93.246094 49.835938 94.839844 51.527344 C 95.714844 52.457031 96.285156 53.628906 96.476562 54.890625 L 96.722656 56.507812 L 97.304688 57.875 C 97.53125 58.398438 97.824219 58.894531 98.179688 59.34375 C 98.753906 60.078125 99.6875 61.269531 100.417969 62.195312 C 101.121094 63.089844 101.578125 64.152344 101.746094 65.277344 C 102.007812 67.042969 102.421875 69.828125 102.742188 71.96875 C 102.855469 72.730469 102.632812 73.503906 102.128906 74.089844 C 101.625 74.671875 100.894531 75.007812 100.121094 75.007812 "/>
</g>
<g clip-path="url(#clip2)" clip-rule="nonzero">
<path style=" stroke:none;fill-rule:evenodd;fill:rgb(69.018555%,74.508667%,77.249146%);fill-opacity:1;" d="M 56.980469 39.945312 L 58.691406 28.34375 C 58.800781 27.601562 59.203125 26.9375 59.804688 26.492188 C 60.40625 26.046875 61.160156 25.859375 61.902344 25.972656 C 65.097656 26.457031 70.296875 27.25 73.433594 27.726562 C 75.03125 27.96875 76.3125 29.167969 76.65625 30.746094 C 77.605469 35.0625 79.386719 43.203125 79.386719 43.203125 C 79.386719 43.203125 81.667969 49.800781 82.527344 52.285156 C 82.742188 52.902344 82.847656 53.546875 82.847656 54.199219 C 82.847656 57.132812 82.847656 65.941406 82.847656 71.109375 C 82.847656 73.261719 81.105469 75.007812 78.949219 75.007812 L 71.976562 75.007812 C 72.6875 75.007812 73.363281 74.6875 73.8125 74.140625 C 74.265625 73.589844 74.445312 72.867188 74.308594 72.167969 C 73.667969 68.953125 72.660156 63.878906 72.234375 61.726562 C 72.101562 61.054688 71.855469 60.40625 71.507812 59.8125 C 70.574219 58.210938 68.636719 54.894531 67.847656 53.542969 C 67.621094 53.152344 67.449219 52.726562 67.347656 52.285156 C 66.917969 50.425781 65.683594 45.113281 64.941406 41.90625 C 64.59375 40.417969 63.269531 39.359375 61.738281 39.359375 C 61.1875 39.359375 60.597656 39.359375 60.015625 39.359375 C 59.707031 39.359375 59.402344 39.394531 59.113281 39.460938 C 60.023438 39.316406 60.953125 39.558594 61.679688 40.132812 C 62.464844 40.757812 62.921875 41.707031 62.921875 42.707031 C 62.921875 46.878906 62.921875 53.027344 62.921875 55.339844 C 62.921875 55.953125 63.042969 56.554688 63.285156 57.117188 C 63.890625 58.542969 65.105469 61.382812 65.691406 62.761719 C 65.917969 63.285156 66.066406 63.835938 66.140625 64.402344 C 66.351562 66.054688 66.828125 69.765625 67.160156 72.328125 C 67.246094 73.007812 67.039062 73.6875 66.585938 74.199219 C 66.136719 74.714844 65.484375 75.007812 64.804688 75.007812 C 60.753906 75.007812 53.171875 75.007812 49.3125 75.007812 C 48.707031 75.007812 48.132812 74.75 47.730469 74.296875 C 47.328125 73.839844 47.140625 73.238281 47.210938 72.636719 C 47.597656 69.449219 48.261719 63.9375 48.511719 61.859375 C 48.578125 61.316406 48.792969 60.804688 49.132812 60.382812 C 49.675781 59.703125 50.527344 58.644531 51.097656 57.933594 C 51.488281 57.445312 51.726562 56.851562 51.789062 56.230469 C 52.015625 53.835938 52.621094 47.511719 52.980469 43.746094 C 53.148438 41.988281 54.425781 40.535156 56.148438 40.136719 Z M 90.660156 75.007812 L 88.054688 75.007812 C 87.800781 75.007812 87.5625 74.898438 87.398438 74.703125 C 87.230469 74.511719 87.160156 74.257812 87.195312 74.007812 C 87.363281 72.925781 87.613281 71.285156 87.683594 70.828125 C 87.695312 70.75 87.695312 70.667969 87.6875 70.585938 C 87.621094 69.914062 87.285156 66.660156 87.125 65.128906 C 87.070312 64.597656 87.066406 64.058594 87.113281 63.527344 C 87.265625 61.710938 87.644531 57.21875 87.890625 54.3125 C 87.949219 53.628906 88.289062 53 88.832031 52.582031 C 89.371094 52.160156 90.066406 51.984375 90.742188 52.097656 C 92.183594 52.339844 93.378906 53.355469 93.839844 54.746094 C 94.675781 57.246094 95.976562 61.148438 96.523438 62.789062 C 96.695312 63.300781 96.800781 63.832031 96.84375 64.367188 C 96.960938 65.964844 97.234375 69.585938 97.429688 72.160156 C 97.484375 72.894531 97.230469 73.621094 96.730469 74.160156 C 96.230469 74.699219 95.527344 75.007812 94.789062 75.007812 L 92.503906 75.007812 C 92.632812 75.007812 92.753906 74.945312 92.832031 74.84375 C 92.90625 74.742188 92.929688 74.609375 92.894531 74.484375 C 92.71875 73.886719 92.429688 72.917969 92.257812 72.335938 C 92.167969 72.023438 91.945312 71.765625 91.648438 71.632812 C 90.921875 71.304688 89.605469 70.707031 89.605469 70.707031 C 89.605469 70.707031 90.203125 71.171875 90.636719 71.503906 C 90.917969 71.722656 91.109375 72.039062 91.164062 72.394531 C 91.238281 72.878906 91.347656 73.578125 91.425781 74.070312 C 91.476562 74.410156 91.292969 74.742188 90.972656 74.875 L 90.660156 75.007812 "/>
</g>
<g clip-path="url(#clip3)" clip-rule="nonzero">
<path style=" stroke:none;fill-rule:nonzero;fill:rgb(83.139038%,30.589294%,63.529968%);fill-opacity:1;" d="M 53.007812 72.617188 C 52.960938 73.304688 53.445312 73.820312 54.128906 73.785156 C 55.273438 73.730469 56.214844 73.019531 56.886719 73.027344 C 57.433594 73.035156 58.523438 73.585938 59.074219 73.753906 C 59.480469 73.875 60.761719 74.164062 60.890625 72.617188 C 62.074219 72.691406 66.164062 71.699219 63.792969 68.898438 C 64.234375 68.929688 65.53125 65.152344 62.058594 64.652344 C 62.707031 61.761719 60.183594 60.53125 58.945312 61.507812 C 58.019531 58.984375 55.832031 59.515625 54.921875 61.304688 C 53.21875 60.757812 51.464844 61.507812 51.664062 64.59375 C 50.226562 64.816406 48.667969 66.574219 50 68.980469 C 48.488281 70.820312 49.558594 72.445312 53.007812 72.617188 "/>
</g>
<path style=" stroke:none;fill-rule:nonzero;fill:rgb(100%,39.99939%,76.858521%);fill-opacity:1;" d="M 55.796875 71.871094 C 54.664062 70.71875 51.839844 66.34375 51.808594 65.273438 C 50.121094 65.484375 49.628906 67.652344 50.71875 68.710938 C 51.386719 69.363281 54.75 71.472656 55.796875 71.871094 "/>
<path style=" stroke:none;fill-rule:nonzero;fill:rgb(100%,56.858826%,87.838745%);fill-opacity:1;" d="M 53.570312 69.949219 C 53.527344 69.921875 53.484375 69.894531 53.441406 69.867188 C 52.359375 69.195312 51.417969 68.539062 51.144531 68.273438 C 50.960938 68.09375 50.835938 67.855469 50.78125 67.585938 C 50.726562 67.320312 50.746094 67.03125 50.832031 66.769531 C 50.914062 66.53125 51.046875 66.324219 51.21875 66.175781 C 51.269531 66.128906 51.320312 66.089844 51.378906 66.054688 C 51.457031 66.269531 51.574219 66.535156 51.738281 66.867188 C 52.019531 67.433594 52.410156 68.125 52.871094 68.863281 C 53.085938 69.210938 53.324219 69.578125 53.570312 69.949219 "/>
<path style=" stroke:none;fill-rule:nonzero;fill:rgb(100%,39.99939%,76.858521%);fill-opacity:1;" d="M 56.273438 71.292969 C 55.796875 69.734375 54.582031 63.171875 54.804688 62.007812 C 53.386719 60.949219 51.675781 62.914062 52.261719 64.523438 C 52.582031 65.398438 55.105469 70.398438 56.273438 71.292969 "/>
<path style=" stroke:none;fill-rule:nonzero;fill:rgb(100%,56.858826%,87.838745%);fill-opacity:1;" d="M 55.027344 68.550781 C 54.855469 68.257812 54.671875 67.941406 54.484375 67.605469 C 53.679688 66.148438 52.984375 64.707031 52.839844 64.3125 C 52.753906 64.082031 52.734375 63.835938 52.78125 63.578125 C 52.824219 63.328125 52.921875 63.085938 53.070312 62.875 C 53.195312 62.699219 53.34375 62.554688 53.503906 62.457031 C 53.65625 62.367188 53.804688 62.320312 53.953125 62.320312 C 54.023438 62.320312 54.09375 62.332031 54.164062 62.351562 C 54.164062 62.644531 54.183594 63.09375 54.265625 63.800781 C 54.351562 64.5625 54.492188 65.53125 54.671875 66.605469 C 54.785156 67.265625 54.90625 67.929688 55.027344 68.550781 "/>
<path style=" stroke:none;fill-rule:nonzero;fill:rgb(100%,80.778503%,94.509888%);fill-opacity:1;" d="M 54.191406 66.191406 C 53.699219 65.242188 53.316406 64.4375 53.222656 64.171875 C 53.164062 64.011719 53.148438 63.832031 53.179688 63.644531 C 53.214844 63.457031 53.292969 63.269531 53.40625 63.109375 C 53.496094 62.976562 53.605469 62.875 53.71875 62.804688 C 53.734375 62.792969 53.75 62.785156 53.765625 62.777344 C 53.78125 63.074219 53.8125 63.425781 53.859375 63.84375 C 53.933594 64.5 54.046875 65.300781 54.191406 66.191406 "/>
<path style=" stroke:none;fill-rule:nonzero;fill:rgb(100%,39.99939%,76.858521%);fill-opacity:1;" d="M 57.644531 71.292969 C 58.121094 69.734375 59.335938 63.171875 59.113281 62.007812 C 60.527344 60.949219 62.242188 62.914062 61.652344 64.523438 C 61.332031 65.398438 58.8125 70.398438 57.644531 71.292969 "/>
<path style=" stroke:none;fill-rule:nonzero;fill:rgb(100%,56.858826%,87.838745%);fill-opacity:1;" d="M 58.890625 68.550781 C 59.011719 67.929688 59.132812 67.265625 59.242188 66.605469 C 59.425781 65.53125 59.566406 64.5625 59.652344 63.800781 C 59.730469 63.09375 59.753906 62.644531 59.753906 62.351562 C 59.824219 62.332031 59.894531 62.320312 59.964844 62.320312 C 60.113281 62.320312 60.261719 62.363281 60.414062 62.457031 C 60.574219 62.554688 60.722656 62.699219 60.847656 62.875 C 60.992188 63.085938 61.09375 63.328125 61.136719 63.578125 C 61.183594 63.835938 61.164062 64.082031 61.078125 64.3125 C 60.933594 64.707031 60.238281 66.148438 59.433594 67.605469 C 59.246094 67.941406 59.0625 68.257812 58.890625 68.550781 "/>
<path style=" stroke:none;fill-rule:nonzero;fill:rgb(100%,80.778503%,94.509888%);fill-opacity:1;" d="M 59.726562 66.191406 C 59.871094 65.304688 59.984375 64.5 60.058594 63.84375 C 60.105469 63.425781 60.136719 63.074219 60.148438 62.777344 C 60.167969 62.785156 60.183594 62.792969 60.199219 62.804688 C 60.3125 62.875 60.421875 62.976562 60.511719 63.109375 C 60.625 63.269531 60.703125 63.457031 60.734375 63.644531 C 60.769531 63.832031 60.753906 64.011719 60.695312 64.171875 C 60.597656 64.4375 60.21875 65.242188 59.726562 66.191406 "/>
<path style=" stroke:none;fill-rule:nonzero;fill:rgb(100%,39.99939%,76.858521%);fill-opacity:1;" d="M 58.070312 71.871094 C 59.207031 70.71875 62.03125 66.34375 62.0625 65.273438 C 63.75 65.484375 64.242188 67.652344 63.152344 68.710938 C 62.484375 69.363281 59.121094 71.472656 58.070312 71.871094 "/>
<path style=" stroke:none;fill-rule:nonzero;fill:rgb(100%,56.858826%,87.838745%);fill-opacity:1;" d="M 60.300781 69.949219 C 60.546875 69.578125 60.785156 69.210938 61 68.863281 C 61.460938 68.125 61.851562 67.433594 62.132812 66.867188 C 62.296875 66.535156 62.414062 66.269531 62.492188 66.054688 C 62.550781 66.089844 62.601562 66.128906 62.652344 66.175781 C 62.824219 66.324219 62.957031 66.53125 63.039062 66.769531 C 63.125 67.03125 63.144531 67.320312 63.089844 67.585938 C 63.035156 67.855469 62.910156 68.09375 62.726562 68.273438 C 62.453125 68.539062 61.511719 69.195312 60.429688 69.867188 C 60.386719 69.894531 60.34375 69.921875 60.300781 69.949219 "/>
<g clip-path="url(#clip4)" clip-rule="nonzero">
<path style=" stroke:none;fill-rule:nonzero;fill:rgb(100%,39.99939%,76.858521%);fill-opacity:1;" d="M 58.5 72.363281 C 59.59375 71.957031 62.5625 70.273438 63.460938 69.328125 C 64.476562 70.113281 63.953125 71.238281 62.925781 71.628906 C 61.808594 72.050781 59.398438 72.222656 58.5 72.363281 "/>
</g>
<path style=" stroke:none;fill-rule:nonzero;fill:rgb(100%,56.858826%,87.838745%);fill-opacity:1;" d="M 61.832031 71.289062 C 62.320312 70.984375 62.910156 70.59375 63.386719 70.214844 C 63.398438 70.265625 63.398438 70.320312 63.390625 70.375 C 63.351562 70.644531 63.078125 70.917969 62.710938 71.054688 C 62.480469 71.144531 62.171875 71.222656 61.832031 71.289062 "/>
<g clip-path="url(#clip5)" clip-rule="nonzero">
<path style=" stroke:none;fill-rule:nonzero;fill:rgb(100%,39.99939%,76.858521%);fill-opacity:1;" d="M 55.386719 72.363281 C 54.292969 71.957031 51.324219 70.273438 50.425781 69.328125 C 49.410156 70.113281 49.933594 71.238281 50.957031 71.628906 C 52.078125 72.050781 54.484375 72.222656 55.386719 72.363281 "/>
</g>
<path style=" stroke:none;fill-rule:nonzero;fill:rgb(100%,56.858826%,87.838745%);fill-opacity:1;" d="M 52.054688 71.289062 C 51.710938 71.222656 51.40625 71.144531 51.175781 71.054688 C 50.808594 70.917969 50.535156 70.644531 50.492188 70.375 C 50.484375 70.320312 50.488281 70.265625 50.5 70.214844 C 50.972656 70.59375 51.566406 70.984375 52.054688 71.289062 "/>
<path style=" stroke:none;fill-rule:nonzero;fill:rgb(100%,39.99939%,76.858521%);fill-opacity:1;" d="M 56.972656 71.066406 C 57.378906 70.339844 58.019531 67.472656 58.363281 65.089844 C 58.585938 63.53125 58.695312 62.550781 58.632812 61.761719 C 58.558594 60.765625 57.691406 60.265625 56.9375 60.265625 C 56.175781 60.265625 55.277344 60.757812 55.265625 61.761719 C 55.253906 62.550781 55.378906 63.8125 55.570312 65.097656 C 55.933594 67.566406 56.5625 70.292969 56.972656 71.066406 "/>
<path style=" stroke:none;fill-rule:nonzero;fill:rgb(100%,56.858826%,87.838745%);fill-opacity:1;" d="M 56.972656 69.082031 C 56.929688 68.921875 56.890625 68.753906 56.847656 68.578125 C 56.589844 67.472656 56.351562 66.207031 56.175781 65.007812 C 55.976562 63.664062 55.867188 62.484375 55.875 61.769531 C 55.878906 61.496094 55.984375 61.285156 56.195312 61.121094 C 56.390625 60.96875 56.667969 60.875 56.9375 60.875 C 57.34375 60.875 57.96875 61.125 58.023438 61.808594 C 58.082031 62.550781 57.972656 63.503906 57.757812 65.003906 C 57.589844 66.15625 57.347656 67.453125 57.09375 68.5625 C 57.054688 68.742188 57.011719 68.917969 56.972656 69.082031 "/>
<path style=" stroke:none;fill-rule:nonzero;fill:rgb(100%,80.778503%,94.509888%);fill-opacity:1;" d="M 56.96875 67.195312 C 56.820312 66.457031 56.6875 65.6875 56.578125 64.949219 C 56.382812 63.625 56.273438 62.46875 56.285156 61.773438 C 56.285156 61.625 56.332031 61.527344 56.445312 61.441406 C 56.570312 61.34375 56.757812 61.28125 56.9375 61.28125 C 57.054688 61.28125 57.234375 61.320312 57.382812 61.421875 C 57.527344 61.519531 57.601562 61.65625 57.617188 61.839844 C 57.671875 62.542969 57.566406 63.472656 57.355469 64.945312 C 57.25 65.664062 57.117188 66.441406 56.96875 67.195312 "/>
<g clip-path="url(#clip6)" clip-rule="nonzero">
<g clip-path="url(#clip7)" clip-rule="nonzero">
<g clip-path="url(#clip8)" clip-rule="nonzero">
<g clip-path="url(#clip9)" clip-rule="nonzero">
<g clip-path="url(#clip10)" clip-rule="nonzero">
<path style=" stroke:none;fill-rule:nonzero;fill:rgb(83.139038%,30.589294%,63.529968%);fill-opacity:1;" d="M 62.066406 24.480469 C 61.855469 25.753906 62.671875 26.796875 63.949219 26.855469 C 66.097656 26.953125 67.984375 25.800781 69.238281 25.9375 C 70.253906 26.050781 72.195312 27.269531 73.195312 27.675781 C 73.933594 27.976562 76.273438 28.738281 76.789062 25.886719 C 78.988281 26.242188 86.800781 25.125 82.871094 19.5 C 83.683594 19.636719 86.777344 12.851562 80.382812 11.308594 C 82.109375 6.054688 77.613281 3.320312 75.125 4.910156 C 73.84375 0.0585938 69.660156 0.65625 67.648438 3.820312 C 64.566406 2.496094 61.152344 3.574219 60.976562 9.347656 C 58.253906 9.503906 55.027344 12.492188 57.09375 17.191406 C 53.941406 20.339844 55.652344 23.546875 62.066406 24.480469 "/>
</g>
</g>
</g>
</g>
</g>
<g clip-path="url(#clip11)" clip-rule="nonzero">
<g clip-path="url(#clip12)" clip-rule="nonzero">
<g clip-path="url(#clip13)" clip-rule="nonzero">
<path style=" stroke:none;fill-rule:nonzero;fill:rgb(100%,39.99939%,76.858521%);fill-opacity:1;" d="M 67.410156 23.59375 C 65.496094 21.257812 61 12.625 61.128906 10.636719 C 57.9375 10.726562 56.632812 14.664062 58.480469 16.824219 C 59.613281 18.148438 65.523438 22.667969 67.410156 23.59375 "/>
</g>
</g>
</g>
<g clip-path="url(#clip14)" clip-rule="nonzero">
<g clip-path="url(#clip15)" clip-rule="nonzero">
<g clip-path="url(#clip16)" clip-rule="nonzero">
<path style=" stroke:none;fill-rule:nonzero;fill:rgb(100%,56.858826%,87.838745%);fill-opacity:1;" d="M 63.589844 19.628906 C 63.511719 19.570312 63.4375 19.511719 63.359375 19.453125 C 61.464844 18.011719 59.816406 16.625 59.355469 16.085938 C 59.042969 15.722656 58.847656 15.257812 58.796875 14.742188 C 58.742188 14.238281 58.832031 13.703125 59.039062 13.234375 C 59.230469 12.808594 59.515625 12.449219 59.863281 12.199219 C 59.964844 12.125 60.074219 12.0625 60.1875 12.007812 C 60.296875 12.417969 60.464844 12.929688 60.714844 13.578125 C 61.136719 14.683594 61.746094 16.035156 62.472656 17.488281 C 62.8125 18.167969 63.191406 18.898438 63.589844 19.628906 "/>
</g>
</g>
</g>
<g clip-path="url(#clip17)" clip-rule="nonzero">
<g clip-path="url(#clip18)" clip-rule="nonzero">
<g clip-path="url(#clip19)" clip-rule="nonzero">
<path style=" stroke:none;fill-rule:nonzero;fill:rgb(100%,39.99939%,76.858521%);fill-opacity:1;" d="M 68.398438 22.605469 C 67.785156 19.625 66.679688 7.226562 67.300781 5.101562 C 64.84375 2.882812 61.296875 6.222656 62.109375 9.316406 C 62.554688 11.003906 66.378906 20.734375 68.398438 22.605469 "/>
</g>
</g>
</g>
<g clip-path="url(#clip20)" clip-rule="nonzero">
<g clip-path="url(#clip21)" clip-rule="nonzero">
<g clip-path="url(#clip22)" clip-rule="nonzero">
<path style=" stroke:none;fill-rule:nonzero;fill:rgb(100%,56.858826%,87.838745%);fill-opacity:1;" d="M 66.558594 17.292969 C 66.285156 16.714844 66.003906 16.097656 65.714844 15.4375 C 64.464844 12.59375 63.421875 9.789062 63.222656 9.03125 C 63.105469 8.589844 63.113281 8.128906 63.242188 7.65625 C 63.367188 7.203125 63.597656 6.769531 63.910156 6.402344 C 64.171875 6.097656 64.476562 5.855469 64.796875 5.703125 C 65.089844 5.5625 65.382812 5.503906 65.65625 5.527344 C 65.789062 5.542969 65.917969 5.574219 66.046875 5.628906 C 65.988281 6.171875 65.953125 7.003906 65.976562 8.332031 C 66 9.761719 66.09375 11.589844 66.242188 13.613281 C 66.335938 14.859375 66.441406 16.113281 66.558594 17.292969 "/>
</g>
</g>
</g>
<g clip-path="url(#clip23)" clip-rule="nonzero">
<g clip-path="url(#clip24)" clip-rule="nonzero">
<g clip-path="url(#clip25)" clip-rule="nonzero">
<path style=" stroke:none;fill-rule:nonzero;fill:rgb(100%,80.778503%,94.509888%);fill-opacity:1;" d="M 65.414062 12.765625 C 64.664062 10.910156 64.09375 9.347656 63.960938 8.839844 C 63.878906 8.53125 63.886719 8.199219 63.980469 7.855469 C 64.074219 7.507812 64.253906 7.175781 64.492188 6.894531 C 64.6875 6.671875 64.90625 6.496094 65.128906 6.386719 C 65.164062 6.371094 65.195312 6.359375 65.226562 6.34375 C 65.203125 6.898438 65.199219 7.5625 65.210938 8.34375 C 65.234375 9.574219 65.300781 11.085938 65.414062 12.765625 "/>
</g>
</g>
</g>
<g clip-path="url(#clip26)" clip-rule="nonzero">
<g clip-path="url(#clip27)" clip-rule="nonzero">
<g clip-path="url(#clip28)" clip-rule="nonzero">
<path style=" stroke:none;fill-rule:nonzero;fill:rgb(100%,39.99939%,76.858521%);fill-opacity:1;" d="M 70.960938 22.851562 C 72.125 20.039062 75.558594 8.074219 75.351562 5.871094 C 78.183594 4.15625 81.035156 8.109375 79.648438 10.992188 C 78.894531 12.5625 73.300781 21.394531 70.960938 22.851562 "/>
</g>
</g>
</g>
<g clip-path="url(#clip29)" clip-rule="nonzero">
<g clip-path="url(#clip30)" clip-rule="nonzero">
<g clip-path="url(#clip31)" clip-rule="nonzero">
<path style=" stroke:none;fill-rule:nonzero;fill:rgb(100%,56.858826%,87.838745%);fill-opacity:1;" d="M 73.773438 17.980469 C 74.109375 16.847656 74.453125 15.636719 74.777344 14.429688 C 75.308594 12.46875 75.746094 10.695312 76.039062 9.292969 C 76.3125 7.996094 76.4375 7.171875 76.484375 6.625 C 76.617188 6.597656 76.753906 6.589844 76.886719 6.601562 C 77.160156 6.628906 77.433594 6.738281 77.695312 6.9375 C 77.980469 7.144531 78.234375 7.441406 78.433594 7.789062 C 78.671875 8.207031 78.816406 8.675781 78.855469 9.144531 C 78.890625 9.632812 78.8125 10.089844 78.613281 10.5 C 78.273438 11.207031 76.71875 13.765625 74.953125 16.320312 C 74.542969 16.914062 74.148438 17.46875 73.773438 17.980469 "/>
</g>
</g>
</g>
<g clip-path="url(#clip32)" clip-rule="nonzero">
<g clip-path="url(#clip33)" clip-rule="nonzero">
<g clip-path="url(#clip34)" clip-rule="nonzero">
<path style=" stroke:none;fill-rule:nonzero;fill:rgb(100%,80.778503%,94.509888%);fill-opacity:1;" d="M 75.753906 13.75 C 76.179688 12.125 76.535156 10.652344 76.789062 9.449219 C 76.949219 8.683594 77.070312 8.03125 77.152344 7.484375 C 77.179688 7.503906 77.210938 7.523438 77.238281 7.542969 C 77.4375 7.691406 77.621094 7.90625 77.769531 8.164062 C 77.953125 8.484375 78.0625 8.84375 78.089844 9.203125 C 78.117188 9.558594 78.0625 9.882812 77.921875 10.171875 C 77.695312 10.648438 76.84375 12.074219 75.753906 13.75 "/>
</g>
</g>
</g>
<g clip-path="url(#clip35)" clip-rule="nonzero">
<g clip-path="url(#clip36)" clip-rule="nonzero">
<g clip-path="url(#clip37)" clip-rule="nonzero">
<path style=" stroke:none;fill-rule:nonzero;fill:rgb(100%,39.99939%,76.858521%);fill-opacity:1;" d="M 71.65625 24 C 73.980469 22.066406 80.027344 14.441406 80.277344 12.464844 C 83.394531 13.15625 83.929688 17.269531 81.710938 19.039062 C 80.34375 20.128906 73.6875 23.445312 71.65625 24 "/>
</g>
</g>
</g>
<g clip-path="url(#clip38)" clip-rule="nonzero">
<g clip-path="url(#clip39)" clip-rule="nonzero">
<g clip-path="url(#clip40)" clip-rule="nonzero">
<path style=" stroke:none;fill-rule:nonzero;fill:rgb(100%,56.858826%,87.838745%);fill-opacity:1;" d="M 76.160156 20.828125 C 76.6875 20.1875 77.199219 19.542969 77.660156 18.941406 C 78.648438 17.648438 79.503906 16.433594 80.128906 15.429688 C 80.496094 14.84375 80.757812 14.371094 80.945312 13.988281 C 81.042969 14.0625 81.136719 14.148438 81.222656 14.238281 C 81.519531 14.550781 81.730469 14.957031 81.835938 15.410156 C 81.953125 15.910156 81.9375 16.453125 81.792969 16.9375 C 81.640625 17.433594 81.363281 17.851562 80.988281 18.152344 C 80.433594 18.59375 78.554688 19.640625 76.417969 20.699219 C 76.332031 20.742188 76.246094 20.785156 76.160156 20.828125 "/>
</g>
</g>
</g>
<g clip-path="url(#clip41)" clip-rule="nonzero">
<g clip-path="url(#clip42)" clip-rule="nonzero">
<g clip-path="url(#clip43)" clip-rule="nonzero">
<path style=" stroke:none;fill-rule:nonzero;fill:rgb(100%,39.99939%,76.858521%);fill-opacity:1;" d="M 72.367188 24.992188 C 74.484375 24.433594 80.328125 21.832031 82.167969 20.238281 C 83.929688 21.878906 82.753906 23.878906 80.769531 24.414062 C 78.601562 25 74.074219 24.894531 72.367188 24.992188 "/>
</g>
</g>
</g>
<g clip-path="url(#clip44)" clip-rule="nonzero">
<g clip-path="url(#clip45)" clip-rule="nonzero">
<g clip-path="url(#clip46)" clip-rule="nonzero">
<path style=" stroke:none;fill-rule:nonzero;fill:rgb(100%,56.858826%,87.838745%);fill-opacity:1;" d="M 78.78125 23.59375 C 79.75 23.113281 80.921875 22.496094 81.875 21.871094 C 81.886719 21.972656 81.882812 22.070312 81.859375 22.167969 C 81.734375 22.664062 81.175781 23.125 80.464844 23.316406 C 80.015625 23.4375 79.433594 23.527344 78.78125 23.59375 "/>
</g>
</g>
</g>
<g clip-path="url(#clip47)" clip-rule="nonzero">
<g clip-path="url(#clip48)" clip-rule="nonzero">
<g clip-path="url(#clip49)" clip-rule="nonzero">
<path style=" stroke:none;fill-rule:nonzero;fill:rgb(100%,39.99939%,76.858521%);fill-opacity:1;" d="M 66.550781 24.4375 C 64.578125 23.488281 59.332031 19.828125 57.824219 17.914062 C 55.789062 19.191406 56.5625 21.378906 58.410156 22.28125 C 60.425781 23.265625 64.894531 24.019531 66.550781 24.4375 "/>
</g>
</g>
</g>
<g clip-path="url(#clip50)" clip-rule="nonzero">
<g clip-path="url(#clip51)" clip-rule="nonzero">
<g clip-path="url(#clip52)" clip-rule="nonzero">
<path style=" stroke:none;fill-rule:nonzero;fill:rgb(100%,56.858826%,87.838745%);fill-opacity:1;" d="M 60.515625 21.847656 C 59.890625 21.660156 59.335938 21.460938 58.917969 21.257812 C 58.257812 20.933594 57.792969 20.375 57.765625 19.867188 C 57.761719 19.769531 57.773438 19.671875 57.804688 19.574219 C 58.625 20.367188 59.660156 21.195312 60.515625 21.847656 "/>
</g>
</g>
</g>
<g clip-path="url(#clip53)" clip-rule="nonzero">
<g clip-path="url(#clip54)" clip-rule="nonzero">
<g clip-path="url(#clip55)" clip-rule="nonzero">
<path style=" stroke:none;fill-rule:nonzero;fill:rgb(100%,39.99939%,76.858521%);fill-opacity:1;" d="M 69.746094 22.316406 C 70.632812 21.03125 72.335938 15.828125 73.402344 11.460938 C 74.097656 8.609375 74.46875 6.804688 74.496094 5.328125 C 74.53125 3.46875 73 2.378906 71.59375 2.246094 C 70.171875 2.109375 68.40625 2.867188 68.203125 4.726562 C 68.046875 6.191406 68.054688 8.554688 68.183594 10.976562 C 68.429688 15.625 69.113281 20.800781 69.746094 22.316406 "/>
</g>
</g>
</g>
<g clip-path="url(#clip56)" clip-rule="nonzero">
<g clip-path="url(#clip57)" clip-rule="nonzero">
<g clip-path="url(#clip58)" clip-rule="nonzero">
<path style=" stroke:none;fill-rule:nonzero;fill:rgb(100%,56.858826%,87.838745%);fill-opacity:1;" d="M 70.09375 18.625 C 70.046875 18.320312 70.003906 18 69.957031 17.671875 C 69.671875 15.570312 69.449219 13.171875 69.328125 10.921875 C 69.195312 8.386719 69.203125 6.171875 69.34375 4.847656 C 69.398438 4.34375 69.632812 3.96875 70.054688 3.703125 C 70.449219 3.453125 70.984375 3.332031 71.484375 3.378906 C 72.246094 3.453125 73.371094 4.027344 73.347656 5.304688 C 73.324219 6.691406 72.957031 8.445312 72.285156 11.191406 C 71.769531 13.304688 71.089844 15.667969 70.417969 17.683594 C 70.308594 18.011719 70.199219 18.328125 70.09375 18.625 "/>
</g>
</g>
</g>
<g clip-path="url(#clip59)" clip-rule="nonzero">
<g clip-path="url(#clip60)" clip-rule="nonzero">
<g clip-path="url(#clip61)" clip-rule="nonzero">
<path style=" stroke:none;fill-rule:nonzero;fill:rgb(100%,80.778503%,94.509888%);fill-opacity:1;" d="M 70.425781 15.121094 C 70.28125 13.722656 70.167969 12.273438 70.09375 10.882812 C 69.960938 8.386719 69.964844 6.21875 70.105469 4.929688 C 70.136719 4.65625 70.238281 4.484375 70.464844 4.34375 C 70.71875 4.183594 71.082031 4.105469 71.410156 4.136719 C 71.632812 4.15625 71.960938 4.257812 72.21875 4.472656 C 72.472656 4.683594 72.589844 4.949219 72.585938 5.289062 C 72.558594 6.609375 72.199219 8.316406 71.542969 11.011719 C 71.222656 12.332031 70.832031 13.75 70.425781 15.121094 "/>
</g>
</g>
</g>
</g>
</svg>
